<?xml version="1.0" encoding="UTF-8"?>
<svg width="155px" height="23px" viewBox="0 0 155 23" version="1.1" xmlns="http://www.w3.org/2000/svg" xmlns:xlink="http://www.w3.org/1999/xlink">
    <!-- Generator: Sketch 50.2 (55047) - http://www.bohemiancoding.com/sketch -->
    <title>Group</title>
    <desc>Created with Sketch.</desc>
    <defs></defs>
    <g id="Symbols" stroke="none" stroke-width="1" fill="none" fill-rule="evenodd">
        <g id="导航0604" transform="translate(-30.000000, -18.000000)" fill="#C7CCE6">
            <g id="Group">
                <g transform="translate(30.000000, 18.000000)">
                    <path d="M28.8800323,5.31984692 L31.0962511,5.31984692 C31.569335,5.31984692 31.9526173,5.70589308 31.9526173,6.18217 L31.9526173,22.1024162 L29.73675,22.1024162 C29.2636661,22.1024162 28.8800323,21.71637 28.8800323,21.2400931 L28.8800323,14.6739469 L22.3137965,14.6739469 L22.3137965,22.1024162 L20.0977534,22.1024162 C19.6246695,22.1024162 19.2410357,21.71637 19.2410357,21.2400931 L19.2410357,5.31984692 L21.4574303,5.31984692 C21.9303384,5.31984692 22.3137965,5.70589308 22.3137965,6.18217 L22.3137965,11.9707392 L28.8800323,11.9707392 L28.8800323,5.31984692 Z M41.9104887,9.48141385 L44.1356701,9.48141385 C44.608754,9.48141385 44.992212,9.86746 44.992212,10.3437369 L44.992212,17.5981138 C44.992212,20.2098523 42.869661,22.3465523 40.2756077,22.3465523 L39.0143435,22.3465523 C36.4201145,22.3465523 34.2977392,20.2098523 34.2977392,17.5982908 L34.297915,9.48141385 L36.5229206,9.48141385 C36.9958288,9.48141385 37.3794626,9.86746 37.3794626,10.3437369 L37.3794626,17.3139754 C37.3794626,18.9809446 39.1798878,20.2452369 40.9198594,19.23306 C41.5431984,18.8705446 41.9104887,18.1833754 41.9104887,17.4585215 L41.9104887,9.48141385 Z M52.9337653,9.47352308 C56.1567812,9.47352308 58.79389,11.7947538 58.79389,15.0395231 L58.79389,16.7946 C58.79389,20.0393692 56.1567812,22.3466231 52.9337653,22.3466231 C49.7107494,22.3466231 47.0734649,20.0393692 47.0734649,16.7946 L47.0734649,15.0395231 C47.0734649,11.7947538 49.7107494,9.47352308 52.9337653,9.47352308 Z M55.7054887,17.0051385 L55.7054887,14.8150077 C55.7054887,13.2803769 54.4581077,12.2586462 52.9337653,12.2586462 C51.4092472,12.2586462 50.162042,13.2803769 50.162042,14.8150077 L50.162042,17.0051385 C50.162042,18.5399462 51.4092472,19.5615 52.9337653,19.5615 C54.4581077,19.5615 55.7054887,18.5399462 55.7054887,17.0051385 Z M128.633164,9.45038154 C131.856005,9.45038154 134.493113,11.7716123 134.493113,15.0163815 L134.493113,16.7714585 C134.493113,20.0162277 131.856005,22.3234815 128.633164,22.3234815 L128.632989,22.3234815 C125.409973,22.3234815 122.772864,20.0162277 122.772864,16.7714585 L122.772864,5.31338923 L124.988907,5.31338923 C125.462167,5.31338923 125.845625,5.69943538 125.845625,6.17553538 L125.845625,10.0878354 C126.675806,9.67702 127.625664,9.45038154 128.632989,9.45038154 L128.633164,9.45038154 Z M131.404712,16.9819969 L131.404712,14.7918662 C131.404712,13.2572354 130.157331,12.2355046 128.632989,12.2355046 C127.108646,12.2355046 125.861265,13.2572354 125.861265,14.7918662 L125.861265,16.9819969 C125.861265,18.5168046 127.108646,19.5383585 128.632989,19.5383585 C130.157331,19.5383585 131.404712,18.5168046 131.404712,16.9819969 Z M99.752148,12.1714585 C100.244211,12.1714585 100.642959,12.5730738 100.642959,13.0682815 L100.642959,14.8375123 C100.642959,17.0948738 100.164778,19.2660738 98.9922613,20.3997969 L98.9920856,20.3999738 C97.6779246,21.6660354 95.9395346,22.3353354 93.9642511,22.3353354 C92.0840414,22.3353354 90.4078622,21.71522 89.1170743,20.5416892 C87.3096196,18.8986046 87.3099711,17.0448046 87.3103226,13.9735969 L87.3103226,13.7121046 C87.3099711,10.6410738 87.3096196,8.78727385 89.1170743,7.14418923 C90.4259632,5.95420462 92.0571536,5.35072 93.9642511,5.35072 C96.3261559,5.35072 97.6976071,5.75605077 99.0736276,6.86465077 C99.3474257,7.08509692 99.5149031,7.41523538 99.5149031,7.76837385 L99.5149031,10.15772 C99.5149031,10.15772 99.4196536,10.1564815 99.407352,10.15772 C98.5843759,9.08928154 97.4814507,7.91575077 94.1974541,7.91575077 C93.2261559,7.91575077 92.0545176,8.36230462 91.4538486,8.95252 C90.6401865,9.75504308 90.4646253,10.6233815 90.4646253,13.8428508 C90.4646253,17.0810738 90.6401865,17.9533046 91.4542001,18.7567123 C92.0397557,19.3320662 92.9785425,19.6758277 93.9642511,19.6758277 C95.0585652,19.6758277 95.994716,19.3042892 96.6713033,18.60102 C97.2222387,18.0419431 97.4888316,17.2484431 97.4888316,16.1734585 L97.4888316,14.7164969 L94.6352149,14.7164969 C94.1431514,14.7164969 93.7442285,14.3148815 93.7442285,13.8194969 L93.7442285,12.1714585 L99.752148,12.1714585 Z M108.640256,22.2551362 C108.640256,22.2551362 108.64008,22.25549 108.64008,22.25549 C108.001628,22.2201054 107.111344,22.2551362 105.883821,22.2551362 C102.7072,22.2551362 101.948544,20.5149208 101.948544,17.55199 L101.948544,5.31775923 L104.221526,5.31775923 C104.681956,5.31775923 105.055046,5.69336692 105.055046,6.15672846 L105.055046,9.41547462 L105.055046,17.1758515 C105.055046,18.8217669 104.995998,19.4567438 106.257438,19.4567438 C106.752665,19.4567438 107.338221,19.4549746 107.805154,19.4533823 C108.266639,19.45179 108.640256,19.8279285 108.640256,20.2925285 L108.640256,22.2551362 Z M154.859762,22.3144762 C154.859762,22.3144762 154.859762,22.3146531 154.859586,22.3146531 C154.221134,22.2794454 153.33085,22.3144762 152.103328,22.3144762 C148.926531,22.3144762 148.16805,20.5742608 148.16805,17.61133 L148.16805,5.37709923 L150.441032,5.37709923 C150.901463,5.37709923 151.274552,5.75270692 151.274552,6.21606846 L151.274552,9.47481462 L151.274552,17.2351915 C151.274552,18.8811069 151.215505,19.5160838 152.476944,19.5160838 C152.972171,19.5160838 153.557727,19.5143146 154.02466,19.5127223 C154.486145,19.51113 154.859762,19.8872685 154.859762,20.3518685 L154.859762,22.3144762 Z M115.623304,9.42428538 C118.846145,9.42428538 121.483253,11.7455162 121.483253,14.9902854 L121.483253,16.7453623 C121.483253,19.9901315 118.846145,22.2973854 115.623304,22.2973854 L115.623129,22.2973854 C112.400113,22.2973854 109.763004,19.9901315 109.763004,16.7453623 L109.763004,14.9902854 C109.763004,11.7455162 112.400113,9.42428538 115.623129,9.42428538 L115.623304,9.42428538 Z M118.394852,16.9559008 L118.394852,14.76577 C118.394852,13.2311392 117.147471,12.2094085 115.623129,12.2094085 C114.098786,12.2094085 112.851405,13.2311392 112.851405,14.76577 L112.851405,16.9559008 C112.851405,18.4907085 114.098786,19.5124392 115.623129,19.5124392 C117.147471,19.5124392 118.394852,18.4907085 118.394852,16.9559008 Z M145.210186,10.5619008 C146.143701,11.3132931 146.61696,12.5100008 146.61696,14.1189392 L146.61696,20.1815623 C146.61696,22.2789854 142.239353,22.3410854 141.631654,22.3410854 C140.797079,22.3410854 140.03069,22.2692546 139.354103,22.1275392 C138.657833,21.9817546 138.055759,21.74167 137.565452,21.4136546 C137.067414,21.0812162 136.676399,20.6505854 136.404885,20.1343238 C136.135129,19.6224854 135.998582,19.0006008 135.998582,18.2863623 C135.998582,17.5829162 136.158151,16.9532469 136.473599,16.4155777 C136.785883,15.8819777 137.216966,15.4320623 137.754018,15.0778623 C138.282108,14.7302085 138.895957,14.4685392 139.578519,14.2990469 C140.251065,14.1325623 140.967193,14.04817 141.706518,14.04817 C142.247788,14.04817 142.6917,14.0603777 143.038253,14.0837315 C143.223655,14.0962931 143.393593,14.1099162 143.548066,14.1244238 L143.548066,14.0276469 C143.548066,13.22937 143.339466,12.67737 142.928241,12.3873931 C142.490305,12.0797238 141.827777,11.9231469 140.958757,11.9231469 C140.400968,11.9231469 139.871121,11.9638392 139.384681,12.0441623 C139.077317,12.0952931 137.944517,12.3481162 137.360895,12.4912469 C137.048083,12.5680315 137.04492,12.2973392 137.04492,11.9997546 L137.04492,10.3301315 C137.04492,10.1204777 137.085515,9.94567769 137.306416,9.89454692 C137.851552,9.76804692 138.637448,9.66118538 139.192777,9.58670077 C139.88518,9.49346231 140.563173,9.44622385 141.208128,9.44622385 C142.943179,9.44622385 144.289324,9.82165462 145.210186,10.5619008 Z M143.548066,16.5139469 C143.359149,16.4944854 143.142465,16.4750238 142.899421,16.4553854 C142.527737,16.4258392 142.213695,16.4109777 141.955537,16.4109777 C140.999177,16.4109777 140.27022,16.5696777 139.789052,16.8826546 C139.337057,17.1763469 139.117561,17.6204238 139.117561,18.2401854 C139.117561,18.6382623 139.191898,18.9455777 139.338814,19.1536392 C139.493287,19.3733777 139.679217,19.5350854 139.906269,19.6490238 C140.14158,19.7665008 140.406065,19.8399238 140.692164,19.8659315 C141.423582,19.9331623 142.054126,19.9209546 142.757074,19.8542546 C143.043701,19.8277162 143.308536,19.7907392 143.548066,19.7438546 L143.548066,16.5139469 Z" id="Combined-Shape"></path>
                    <path d="M75.5239609,22.1023985 C75.050877,22.1023985 74.6674189,21.7163523 74.6674189,21.2400754 L74.6674189,9.94336 L76.8836378,9.94336 C77.3567217,9.94336 77.740004,10.3295831 77.740004,10.8056831 L77.740004,22.1023985 L75.5239609,22.1023985 Z M66.7346173,9.47352308 C69.9574575,9.47352308 72.5947421,11.7947538 72.5947421,15.0395231 L72.5947421,16.7946 C72.5947421,20.0393692 69.9574575,22.3466231 66.7346173,22.3466231 L66.7344416,22.3466231 C63.5114257,22.3466231 60.8743169,20.0393692 60.8743169,16.7946 L60.8743169,5.33653077 L63.0905357,5.33653077 C63.5634439,5.33653077 63.9470777,5.72257692 63.9470777,6.19867692 L63.9470777,10.1109769 C64.7770833,9.70016154 65.7272931,9.47352308 66.7344416,9.47352308 L66.7346173,9.47352308 Z M69.506165,17.0051385 L69.506165,14.8150077 C69.506165,13.2803769 68.2589598,12.2586462 66.7344416,12.2586462 C65.2100992,12.2586462 63.962894,13.2803769 63.962894,14.8150077 L63.962894,17.0051385 C63.962894,18.5399462 65.2100992,19.5615 66.7344416,19.5615 C68.2589598,19.5615 69.506165,18.5399462 69.506165,17.0051385 Z M76.203729,8.75031462 C75.2566825,8.75031462 74.4888878,7.97733769 74.4888878,7.02389923 C74.4888878,6.07046077 75.2566825,5.29730692 76.203729,5.29730692 C77.1507755,5.29730692 77.9185703,6.07046077 77.9185703,7.02389923 C77.9185703,7.97733769 77.1507755,8.75031462 76.203729,8.75031462 Z" id="Combined-Shape"></path>
                    <path d="M9.72092517,7.03334692 C9.72092517,3.75213154 8.13331746,0.930385385 6.92565306,0.0116238462 C6.92073243,0.00861615385 6.83321542,-0.0407453846 6.84059637,0.0903546154 C6.84077211,0.0921238462 6.83919048,0.0926546154 6.83919048,0.0942469231 C6.73866893,6.42968538 3.5239127,8.14672385 1.75652608,10.4598162 C-2.32215306,15.7975854 1.47112925,21.6498469 5.33365193,22.7313777 C7.49504082,23.3366315 4.83455896,21.6604623 4.49187188,18.1204085 C4.07765986,13.8415238 9.72092517,10.5755238 9.72092517,7.03334692" id="Fill-3"></path>
                    <path d="M11.8399966,9.19019846 C11.8136361,9.17321385 11.7762041,9.16153692 11.750195,9.20205231 C11.6791973,9.99979846 10.8156259,11.7055138 9.72096032,13.2719908 C6.00834127,18.5855215 8.12403855,21.14666 9.31377778,22.5224138 C10.004424,23.3210446 9.31377778,22.5224138 11.0402177,21.7062677 C11.1757109,21.6423985 14.4090952,19.9317292 14.759339,16.0342908 C15.0983356,12.2603446 12.6953084,9.88143692 11.8399966,9.19019846" id="Fill-5"></path>
                </g>
            </g>
        </g>
    </g>
</svg>